PathFileType	4	(X/Y/Z)	\\Move.snu.ac.kr\motion\Animal\091204_091205_Bird\091205_bird\Project 2\Capture day 2\Session 1\pigeon_028.trc
DataRate	CameraRate	NumFrames	NumMarkers	Units	OrigDataRate	OrigDataStartFrame	OrigNumFrames
240.0	240.0	25	14	mm	240.0	107	6061
Frame#	Time	14MarkersBird:Head			14MarkersBird:C_back			14MarkersBird:Spine			14MarkersBird:L-shoulder			14MarkersBird:L-elbow			14MarkersBird:L-wrist			14MarkersBird:L-hand			14MarkersBird:R-shoulder			14MarkersBird:R-elbow			14MarkersBird:R-Wrist			14MarkersBird:R-hand			14MarkersBird:C_Tail			14MarkersBird:L-Tale			14MarkersBird:R-Tale			
		X1	Y1	Z1	X2	Y2	Z2	X3	Y3	Z3	X4	Y4	Z4	X5	Y5	Z5	X6	Y6	Z6	X7	Y7	Z7	X8	Y8	Z8	X9	Y9	Z9	X10	Y10	Z10	X11	Y11	Z11	X12	Y12	Z12	X13	Y13	Z13	X14	Y14	Z14	

4401	18.333	-864.61102	1027.98889	1324.35999	-892.13599	1013.49579	1375.59680	-916.53619	994.44360	1419.37183	-899.37390	1014.46942	1337.05005	-926.73114	1002.79608	1339.02856	-910.43866	989.01837	1302.36401	-905.59277	972.50940	1282.96582	-854.52924	1003.39008	1359.41626	-844.05664	985.41559	1374.92200	-831.66589	970.17932	1341.25244	-823.87445	942.98444	1318.14954	-984.68146	915.03333	1487.56482	-1019.36121	966.22021	1405.99207	-871.13232	919.27448	1494.64160	
4402	18.337	-861.42407	1024.13513	1318.58313	-889.06195	1012.30530	1370.45972	-913.93201	993.18616	1413.98010	-896.05414	1012.77026	1331.80127	-924.70300	1000.97473	1336.83765	-904.59113	992.07819	1300.71240	-894.02594	974.72449	1283.49060	-852.06537	1001.90149	1354.32190	-843.34717	984.27673	1372.87354	-832.08344	974.29675	1336.95496	-829.64215	949.43457	1309.09546	-983.46783	915.73395	1482.83850	-1017.31238	966.98358	1401.75952	-871.68127	917.97284	1491.06714	
4403	18.342	-858.06195	1020.14374	1312.61389	-885.83234	1010.75049	1364.87134	-911.24524	991.63824	1408.32275	-892.48816	1010.86932	1326.39465	-922.86975	1001.08997	1335.57996	-902.32635	997.76251	1299.07581	-888.68158	981.04431	1282.77917	-849.52386	1000.21039	1349.06250	-842.60712	984.94220	1372.51416	-829.23395	979.67450	1336.15405	-828.92957	957.24274	1305.46045	-982.07983	915.65417	1477.47705	-1014.99548	968.10095	1396.18054	-871.97076	915.39362	1486.14185	
4404	18.346	-854.58307	1016.11334	1306.59326	-882.49768	1008.78876	1358.96167	-908.48462	989.84271	1402.48389	-888.86713	1008.69690	1320.87061	-920.59955	1002.81403	1334.99597	-902.58704	1004.87262	1297.37915	-889.21387	988.91431	1280.43237	-846.87170	998.19904	1343.78455	-842.23425	987.32550	1372.73108	-824.12720	985.45282	1337.75513	-822.54779	963.91357	1306.57043	-980.62531	914.60907	1471.34778	-1012.41382	969.41699	1389.19189	-871.80786	911.78595	1479.92615	
4405	18.350	-851.07721	1012.15887	1300.71899	-879.10107	1006.44183	1352.91980	-905.73401	987.86859	1396.59009	-885.35675	1006.23969	1315.29150	-917.12573	1005.43347	1334.82959	-903.64453	1012.63458	1295.99658	-894.19879	996.97235	1277.42639	-844.16772	995.96173	1338.62878	-842.76282	991.12811	1372.15234	-818.44623	991.56403	1340.57776	-812.71967	968.86829	1311.78113	-979.21063	912.58051	1464.38306	-1009.55072	970.73712	1380.90051	-870.95233	907.71375	1472.81738	
4406	18.354	-847.61469	1008.40100	1295.17249	-875.68506	1003.81989	1346.91638	-903.12622	985.81384	1390.75586	-882.00293	1003.57941	1309.72119	-911.94739	1008.01489	1334.79822	-903.78333	1020.41632	1295.46606	-901.68518	1005.07214	1275.64282	-841.58099	993.82520	1333.58911	-844.52734	995.72552	1369.65332	-813.94153	998.19690	1343.47668	-802.17651	973.32043	1320.40955	-977.92883	909.71368	1456.56970	-1006.38647	971.87518	1371.63757	-869.16852	903.84247	1465.39343	
4407	18.358	-844.20178	1004.93994	1290.04309	-872.30029	1001.09717	1341.02930	-900.75684	983.73053	1385.01794	-878.71301	1000.86389	1304.17114	-905.08966	1009.72552	1334.55530	-901.82794	1027.51086	1296.03540	-909.31152	1013.53973	1276.90979	-839.27258	992.08710	1328.49438	-847.30383	1000.46667	1364.87598	-811.78870	1005.23352	1345.29126	-793.43512	979.22974	1331.29822	-976.85150	906.29346	1448.00439	-1002.95972	972.65656	1361.94910	-866.29486	900.75543	1458.23242	
4408	18.362	-840.79559	1001.85455	1285.30750	-868.98523	998.43445	1335.21155	-898.59753	981.54462	1379.33228	-875.34113	998.21674	1298.62769	-897.09406	1010.13513	1333.72729	-897.44275	1033.30627	1297.37854	-914.51331	1022.60046	1281.84827	-837.24200	990.72754	1323.17346	-851.08521	1005.00592	1358.27075	-812.14246	1012.17664	1345.04956	-788.27167	988.05634	1342.65381	-976.00397	902.67767	1438.94507	-999.41528	972.93036	1352.49207	-862.29413	898.83307	1451.76379	
4409	18.367	-837.35858	999.17334	1280.84924	-865.72876	995.89850	1329.34680	-896.54541	979.11609	1373.63391	-871.81763	995.65222	1293.13721	-888.78729	1009.27045	1332.05688	-891.09637	1037.56934	1298.77600	-915.26849	1032.17041	1289.44653	-835.30475	989.37885	1317.65662	-855.58398	1007.89899	1350.10913	-814.23035	1018.47113	1342.36597	-787.53949	999.98523	1352.38977	-975.32922	899.19604	1429.82471	-995.98126	972.64514	1343.88989	-857.30579	898.16302	1446.16687	
4410	18.371	-833.91925	996.80835	1276.48755	-862.51355	993.42841	1323.40857	-894.50854	976.33459	1367.87830	-868.21552	993.06879	1287.81104	-880.92273	1007.44727	1329.45398	-883.68463	1040.44348	1299.49268	-910.80994	1041.70776	1297.77051	-833.19727	987.61438	1312.15271	-855.81421	1007.67761	1340.88074	-816.90302	1023.76508	1337.55920	-791.16473	1013.94287	1358.68945	-974.67120	896.06848	1421.22974	-992.87091	971.90076	1336.58655	-851.67999	898.54565	1441.33887	
4411	18.375	-830.56360	994.55792	1272.04517	-859.38367	990.89130	1317.54382	-892.57477	973.33759	1362.13110	-864.66919	990.36273	1282.71655	-873.81415	1005.09973	1325.80664	-876.10852	1042.18616	1299.01599	-901.67139	1050.16846	1304.98889	-830.72382	985.25525	1306.85876	-853.43872	1005.81335	1331.98877	-819.12408	1027.86389	1331.36536	-798.13416	1028.11963	1360.49329	-973.79169	893.36603	1413.81689	-990.16925	970.84235	1330.69910	-845.93372	899.56915	1436.98022	
4412	18.379	-827.35486	992.22449	1267.42847	-856.35815	988.21631	1311.94348	-890.51880	969.99103	1356.28638	-861.24481	987.54431	1277.77710	-867.23993	1002.74432	1320.64453	-869.13397	1042.97998	1297.02991	-889.44250	1056.42688	1309.72998	-827.83539	982.40717	1301.85425	-849.88373	1003.46832	1323.94495	-820.03589	1030.54224	1324.62500	-806.45032	1040.59277	1357.77795	-972.40558	891.02020	1408.11182	-987.78583	969.44537	1325.89136	-840.60760	900.68494	1432.76758	
4413	18.383	-824.26764	989.70605	1262.63257	-853.42578	985.40289	1306.70605	-887.16516	965.17120	1349.96765	-857.91553	984.71631	1272.86157	-860.98846	1000.84180	1313.51587	-863.46375	1042.93640	1293.28503	-876.58081	1059.97461	1310.92004	-824.59528	979.27203	1297.12024	-845.20715	1001.00018	1316.58533	-818.86725	1031.49011	1318.26660	-813.26392	1049.85950	1351.67322	-970.24677	888.87903	1404.24609	-985.51080	967.46826	1321.45642	-836.09088	901.34705	1428.49182	
4414	18.388	-821.18774	987.01538	1257.71472	-850.67035	982.39929	1301.85364	-883.65564	960.69916	1344.72351	-854.64807	981.96027	1267.91748	-855.48950	999.50897	1304.83801	-859.78827	1042.07898	1287.57275	-865.90631	1061.25574	1307.75623	-821.11578	975.98828	1292.58142	-839.48633	998.40594	1309.74939	-815.04449	1030.37952	1313.30676	-815.58551	1055.09912	1344.39453	-967.18872	886.77863	1401.81055	-983.13043	964.66241	1316.65991	-832.49512	901.16724	1424.06470	
4415	18.392	-818.00208	984.24591	1252.74951	-848.15887	979.12878	1297.32129	-880.65045	957.49884	1341.24561	-851.43488	979.31476	1262.89368	-851.67938	998.33990	1295.91895	-858.61536	1040.27661	1279.79626	-859.73529	1061.22168	1299.89014	-817.51514	972.59937	1288.12793	-833.09808	995.54657	1303.70605	-808.49622	1026.88269	1310.50366	-811.52582	1055.87561	1338.62573	-963.37103	884.59802	1399.96204	-980.52002	961.00256	1311.09863	-829.62610	899.97723	1419.42456	
4416	18.396	-814.68817	981.51031	1247.77209	-845.79620	975.60504	1292.93201	-878.05414	955.24213	1338.84497	-848.26117	976.74048	1257.75745	-850.04242	996.82996	1287.61340	-859.97162	1037.23584	1269.99146	-859.12213	1060.38538	1287.52747	-813.85870	969.09479	1283.60986	-826.53229	992.27008	1299.04272	-799.76056	1020.66998	1309.85498	-801.21820	1051.55664	1336.23132	-959.20422	882.26489	1397.72791	-977.66962	956.74707	1304.84436	-827.08765	897.80176	1414.48560	
4417	18.400	-811.27179	978.88025	1242.76929	-843.41174	971.94714	1288.45129	-875.67413	953.39685	1336.49951	-845.06287	974.14380	1252.52844	-850.13721	994.82922	1279.52429	-863.21686	1032.55225	1258.28064	-863.50183	1058.16211	1271.26892	-810.12347	965.43262	1278.88318	-820.29504	988.45355	1296.24243	-789.66431	1011.51703	1310.39648	-786.46051	1041.37061	1336.99866	-955.20679	879.75757	1394.36646	-974.65692	952.31372	1298.29443	-824.50171	894.78168	1409.16748	
4418	18.404	-807.77765	976.35577	1237.69641	-840.85950	968.34302	1283.68994	-873.31476	951.42328	1333.17310	-841.76074	971.45764	1247.19275	-851.11621	992.32745	1270.77136	-867.12378	1025.77856	1244.87549	-870.75946	1053.10327	1251.88184	-806.23987	961.56433	1273.88171	-814.78967	983.75159	1295.29688	-778.95734	999.44519	1310.51965	-769.44922	1025.13770	1338.50757	-951.77466	877.13867	1389.58679	-971.58746	948.07910	1291.84058	-821.68781	891.07593	1403.42932	
4419	18.408	-804.23486	973.89996	1232.49512	-838.04889	965.00806	1278.58643	-870.77893	948.78308	1327.83057	-838.32190	968.68054	1241.71899	-852.26794	989.12970	1260.95349	-870.17950	1016.54242	1230.18555	-877.91583	1043.86487	1230.33423	-802.19885	957.50024	1268.63513	-808.56451	977.01202	1294.70923	-768.30768	984.81506	1308.54163	-752.07184	1003.66797	1337.38464	-949.03247	874.55615	1383.53870	-968.51801	944.28821	1285.64429	-818.71521	886.82733	1397.29700	
4420	18.413	-800.64215	971.53473	1227.16931	-834.94910	962.13538	1273.22791	-867.84949	945.02942	1319.55432	-834.74548	965.87274	1236.13586	-853.01263	984.95001	1250.22559	-870.97662	1004.70093	1214.92334	-882.18762	1029.94165	1207.96484	-798.08765	953.41162	1263.23181	-800.35345	968.08655	1292.08386	-758.46356	968.36389	1303.14185	-736.08105	978.56335	1330.90588	-946.84937	872.18506	1376.62463	-965.40918	941.12256	1279.63000	-815.84399	882.23163	1390.90796	
4421	18.417	-796.95325	969.31097	1221.78455	-831.58496	959.81897	1267.77905	-864.34857	941.05560	1309.67834	-831.00421	963.17395	1230.49243	-852.86395	979.60065	1239.09033	-868.52631	990.53778	1200.12805	-881.73877	1011.68970	1186.45215	-794.01379	949.63690	1257.76501	-791.59979	958.65942	1286.74585	-750.31909	951.20911	1293.65063	-723.27112	951.89990	1317.82788	-944.95941	870.14844	1369.27649	-962.15234	938.80359	1273.63806	-813.41492	877.63800	1384.56982	
4422	18.421	-793.11761	967.20825	1216.39722	-828.01013	958.02039	1262.39978	-860.48792	939.41626	1302.78809	-827.05908	960.74561	1224.84082	-851.47412	973.18958	1228.18201	-862.46057	974.92859	1187.03870	-875.83032	990.14136	1167.63025	-790.01428	946.50891	1252.31238	-783.64874	949.35620	1280.08325	-744.76459	934.78241	1280.28455	-715.28674	926.03998	1298.45715	-943.07727	868.48169	1361.81055	-958.65222	937.52930	1267.58777	-811.73065	873.50952	1378.71533	
4423	18.425	-789.10889	965.12164	1211.01147	-824.25452	956.60583	1257.17859	-856.72101	938.99512	1297.66479	-822.90161	958.66937	1219.21631	-848.78967	966.14258	1218.17932	-853.11066	959.34485	1176.74255	-864.68964	967.04175	1153.25732	-786.02722	944.15430	1246.93005	-777.03040	940.57886	1272.17017	-742.31940	920.67419	1264.20618	-713.14038	903.48749	1274.45837	-941.00439	867.18518	1354.42566	-954.88635	937.19720	1261.48572	-810.96515	870.20459	1373.67944	
4424	18.429	-784.91974	962.92310	1205.59253	-820.30804	955.39630	1252.09326	-853.14893	939.48584	1293.78857	-818.55475	956.89246	1213.62415	-845.10846	959.05737	1209.62708	-841.44586	945.65009	1169.72156	-849.36206	944.97504	1144.53345	-781.93817	942.44501	1241.62061	-771.96948	932.93140	1263.52905	-742.69897	910.34998	1247.29138	-716.58173	886.61469	1248.49072	-938.67737	866.28180	1347.26453	-950.90167	937.21497	1255.31665	-811.09344	867.72937	1369.45105	
4425	18.433	-780.54089	960.52679	1200.08130	-816.13544	954.21887	1247.00977	-849.90948	940.78717	1291.36133	-814.02393	955.29272	1208.01782	-840.96405	952.54004	1202.73730	-828.93170	935.63708	1165.57898	-831.66235	927.04572	1141.40710	-777.67078	941.09613	1236.33899	-768.30292	926.82666	1255.34131	-744.63513	904.71936	1231.67773	-723.73248	877.08655	1223.62366	-936.11481	865.77496	1340.40332	-946.77655	936.75879	1249.03674	-811.87482	865.68549	1365.61987	
